 <svg  version="1.0" xmlns="http://www.w3.org/2000/svg"  width="204.000000pt" height="192.000000pt" viewBox="0 0 204.000000 192.000000"  preserveAspectRatio="xMidYMid meet">  <g transform="translate(0.000000,192.000000) scale(0.100000,-0.100000)" fill="#0400ff" stroke="none"> <path d="M900 1885 c-169 -38 -327 -156 -403 -301 -49 -95 -67 -176 -67 -310 l0 -112 -45 -6 c-64 -10 -133 -60 -164 -121 l-26 -50 -3 -429 c-2 -361 0 -436 12 -481 15 -50 40 -84 52 -72 3 3 -2 21 -12 39 -17 30 -19 67 -22 477 -1 286 1 448 8 456 5 6 7 15 3 18 -3 4 1 15 10 25 10 10 14 22 10 25 -3 4 -1 7 5 7 6 0 14 9 17 21 4 12 12 18 21 15 8 -3 17 1 20 9 3 8 21 17 40 21 19 3 37 10 40 15 3 5 12 9 20 9 29 0 39 25 41 105 0 44 4 105 7 135 4 30 7 62 8 70 1 32 69 161 80 154 8 -5 9 -1 4 11 -4 12 0 22 14 32 11 8 20 21 20 30 0 9 6 13 14 10 10 -4 13 -1 10 7 -3 8 -1 17 5 21 6 3 11 0 11 -7 0 -7 6 -2 13 11 7 14 26 28 44 33 18 5 35 13 39 19 4 8 0 8 -14 0 -30 -16 -41 -13 -12 4 14 8 34 12 44 8 14 -4 18 -1 13 10 -4 11 10 21 56 38 76 28 74 28 172 34 84 5 148 -2 140 -15 -2 -4 6 -5 19 -3 31 6 141 -42 140 -60 -1 -9 5 -13 15 -10 10 2 36 -12 61 -35 25 -21 53 -41 63 -45 9 -3 17 -16 17 -27 0 -11 6 -19 13 -18 7 2 11 -5 9 -16 -3 -14 1 -17 13 -12 13 5 16 2 11 -10 -5 -12 -2 -15 9 -10 9 3 14 2 11 -2 -7 -11 23 -95 36 -103 6 -4 12 -22 12 -41 1 -18 5 -39 9 -46 5 -7 8 -66 8 -131 0 -119 0 -119 27 -137 15 -10 29 -19 32 -19 34 -4 61 -18 57 -29 -4 -9 4 -12 24 -11 16 1 29 -3 29 -9 0 -5 12 -22 26 -37 14 -15 28 -42 31 -61 2 -18 5 -222 7 -453 2 -337 0 -423 -11 -433 -9 -10 -10 -19 -3 -33 8 -14 8 -19 -1 -17 -6 2 -15 -7 -19 -19 -14 -35 22 -21 45 18 19 33 20 52 20 489 0 447 0 456 -22 495 -37 70 -100 116 -176 130 l-37 7 0 112 c0 63 -7 138 -15 175 -32 134 -127 271 -242 347 -125 83 -308 120 -443 89z"/> <path d="M908 1683 c-16 -2 -28 -9 -28 -14 0 -6 -10 -5 -22 2 -22 12 -22 11 -8 -6 14 -17 14 -17 -7 -7 -31 17 -40 15 -17 -4 18 -15 18 -15 -5 -8 -16 4 -21 3 -17 -5 4 -6 -4 -16 -18 -23 -14 -6 -26 -15 -26 -19 0 -5 -6 -7 -12 -5 -7 1 -10 1 -5 -1 13 -8 7 -25 -7 -20 -10 4 -13 1 -9 -9 4 -10 0 -12 -11 -8 -9 4 -16 3 -14 -2 1 -5 -6 -21 -15 -36 -10 -14 -20 -37 -21 -50 -2 -12 -8 -35 -14 -49 -6 -14 -12 -73 -13 -130 -2 -88 1 -110 16 -137 14 -23 22 -28 28 -19 5 7 10 8 13 2 3 -7 121 -8 341 -5 186 3 339 7 341 8 1 1 2 7 2 13 0 6 7 18 16 26 9 9 11 18 6 22 -6 3 -9 42 -9 86 1 44 -3 89 -8 99 -6 14 -5 17 3 12 14 -8 16 5 4 19 -19 22 -55 88 -44 81 19 -12 14 6 -8 29 -32 31 -70 79 -70 87 0 4 -7 5 -15 2 -8 -3 -25 5 -39 19 -22 22 -47 33 -96 44 -29 6 -185 11 -212 6z m187 -27 c110 -29 196 -100 241 -199 24 -54 28 -77 32 -182 l4 -120 -356 3 -356 2 0 78 c0 151 26 240 93 313 88 97 220 138 342 105z"/> <path d="M575 943 c-158 -6 -185 -28 -37 -32 53 -1 100 -5 103 -9 5 -6 160 -405 194 -502 l13 -35 11 30 c6 17 30 76 52 131 l40 102 -51 133 c-28 74 -52 138 -53 142 -1 4 119 7 266 7 232 -1 274 -3 313 -18 90 -36 143 -115 145 -218 4 -154 -115 -267 -283 -268 -32 -1 -58 -3 -58 -5 0 -2 13 -38 29 -80 50 -131 86 -225 89 -232 2 -4 -39 -7 -90 -8 l-93 -1 -53 142 c-29 79 -57 151 -61 162 -5 14 -23 -25 -65 -142 l-58 -161 -80 2 -80 2 -44 120 c-25 66 -67 176 -93 245 -27 69 -72 186 -99 260 -28 74 -56 147 -63 163 -15 32 -34 37 -23 5 5 -13 8 -35 9 -50 0 -16 6 -28 13 -28 10 0 16 -26 15 -67 -1 -7 3 -10 8 -7 5 3 9 -4 9 -15 0 -11 5 -23 11 -27 6 -3 9 -15 6 -25 -3 -11 -1 -17 3 -14 5 3 14 -12 21 -32 6 -21 14 -42 18 -48 3 -5 7 -14 8 -20 11 -46 41 -113 48 -107 5 4 5 -1 1 -12 -3 -10 -2 -24 3 -30 16 -19 42 -99 45 -139 2 -21 7 -41 11 -45 4 -4 5 4 2 17 -4 18 -3 21 6 12 6 -6 11 -28 10 -48 0 -21 2 -32 5 -24 3 9 9 2 18 -18 7 -17 10 -39 7 -49 -3 -9 -2 -14 2 -10 5 5 14 -1 22 -12 12 -17 26 -20 98 -20 95 0 108 9 135 89 9 28 16 38 22 29 5 -9 8 -5 8 12 0 14 4 32 10 40 6 9 5 20 -3 29 -10 12 -9 14 5 9 10 -4 19 -1 23 10 5 15 8 13 20 -8 8 -14 12 -33 9 -42 -3 -10 0 -18 6 -18 6 0 8 -5 5 -10 -3 -6 1 -17 9 -26 9 -8 19 -27 22 -41 4 -15 16 -37 27 -50 19 -21 29 -23 107 -23 117 0 129 14 91 117 -16 45 -17 51 -3 45 14 -5 15 -4 2 10 -8 9 -19 13 -24 10 -5 -3 -7 7 -4 22 3 14 2 26 -1 26 -4 0 -13 17 -21 37 -8 21 -16 41 -18 44 -1 3 26 9 60 13 78 8 140 24 133 35 -6 11 23 36 31 28 11 -11 55 51 78 110 31 75 34 225 5 207 -5 -3 -9 -1 -9 5 0 5 5 13 10 16 6 4 -6 23 -29 45 -22 21 -37 40 -35 43 2 2 -14 12 -36 23 -22 10 -40 23 -40 28 0 4 -7 6 -15 2 -8 -3 -15 -1 -15 5 0 5 -11 7 -26 3 -15 -4 -25 -3 -21 2 3 5 -99 9 -243 9 -136 0 -246 -3 -243 -7 2 -5 -5 -8 -17 -8 -11 0 -27 -6 -34 -12 -11 -11 -11 -17 3 -37 12 -19 13 -25 3 -29 -10 -3 -10 -7 -1 -18 6 -8 15 -11 20 -8 5 3 9 0 9 -5 0 -6 -5 -11 -11 -11 -6 0 -3 -7 5 -16 9 -8 16 -23 16 -32 0 -9 7 -30 15 -46 8 -15 15 -34 15 -41 0 -7 6 -18 14 -25 16 -12 12 -35 -12 -62 -8 -10 -12 -24 -9 -33 4 -8 3 -15 -2 -15 -5 0 -14 -20 -21 -45 -7 -25 -16 -48 -20 -50 -5 -3 -6 5 -2 17 3 15 2 19 -7 14 -6 -4 -10 -4 -9 1 2 7 -21 73 -49 143 -3 8 -7 25 -9 37 -5 40 -15 63 -25 58 -5 -4 -9 2 -9 12 0 11 -7 28 -15 39 -8 10 -15 27 -15 37 0 9 -5 17 -11 17 -7 0 -9 10 -5 25 4 14 2 25 -4 25 -5 0 -17 17 -27 38 l-18 37 -70 -2z"/> <path d="M1085 761 c-3 -2 0 -10 6 -17 6 -8 26 -53 44 -101 l33 -88 85 0 c98 0 129 13 152 62 20 42 13 82 -21 114 -21 19 -38 24 -97 26 -40 2 -100 5 -135 6 -34 2 -65 1 -67 -2z m268 -49 c17 -9 32 -24 34 -32 4 -13 3 -13 -6 0 -9 13 -11 12 -11 -6 0 -11 6 -26 13 -33 10 -11 9 -12 -2 -6 -11 6 -13 4 -8 -8 4 -11 2 -14 -9 -10 -10 4 -12 0 -8 -12 6 -14 3 -16 -16 -10 -12 4 -20 3 -17 -2 3 -5 -23 -10 -59 -11 -77 -4 -94 8 -84 54 6 26 5 31 -7 27 -9 -4 -16 2 -20 16 -3 11 -9 18 -14 15 -12 -7 -11 3 1 26 8 16 20 17 96 14 59 -3 97 -10 117 -22z"/> </g> </svg> 