<?xml version="1.0" standalone="no"?>
<!DOCTYPE svg PUBLIC "-//W3C//DTD SVG 20010904//EN"
 "http://www.w3.org/TR/2001/REC-SVG-20010904/DTD/svg10.dtd">
<svg version="1.0" xmlns="http://www.w3.org/2000/svg"
 width="300.000000pt" height="199.000000pt" viewBox="0 0 300.000000 199.000000"
 preserveAspectRatio="xMidYMid meet">
<metadata>
Created by potrace 1.10, written by Peter Selinger 2001-2011
</metadata>
<g transform="translate(0.000000,199.000000) scale(0.100000,-0.100000)"
fill="#6bb017" stroke="none">
<path d="M962 1608 l-39 -83 48 -43 c72 -64 93 -126 92 -272 -1 -66 -8 -147
-17 -190 -33 -153 -38 -196 -27 -255 29 -157 103 -224 391 -359 35 -16 64 -38
79 -61 l24 -35 17 27 c25 41 38 49 123 77 197 64 339 176 373 292 20 69 19
142 -2 214 -40 137 -55 199 -60 260 -11 114 27 235 95 307 l30 31 -34 84 c-38
94 -22 87 -164 63 -125 -22 -297 -20 -344 4 -34 18 -40 18 -68 4 -48 -24 -170
-27 -318 -9 -73 10 -139 20 -146 23 -9 3 -27 -23 -53 -79z m193 42 c106 -14
274 -11 319 5 35 12 43 12 70 -3 42 -23 256 -22 380 2 48 9 89 16 90 14 1 -2
15 -36 30 -76 l28 -74 -30 -31 c-100 -105 -119 -291 -52 -500 39 -121 46 -177
30 -250 -27 -133 -155 -238 -378 -312 -62 -20 -88 -34 -104 -56 l-22 -29 -35
34 c-22 21 -80 53 -145 82 -204 89 -293 187 -304 335 -3 49 3 107 23 210 48
251 25 402 -73 491 l-42 38 33 70 32 71 40 -6 c22 -3 72 -10 110 -15z"/>
<path d="M1170 1575 c0 -19 5 -25 23 -24 12 0 16 3 10 6 -7 2 -13 13 -13 24 0
10 -4 19 -10 19 -5 0 -10 -11 -10 -25z"/>
<path d="M1218 1575 c4 -22 9 -24 47 -23 35 2 41 5 37 20 -7 28 -20 31 -32 8
-14 -26 -34 -26 -27 0 4 14 0 20 -13 20 -13 0 -16 -6 -12 -25z"/>
<path d="M1326 1593 c7 -5 14 -17 17 -28 4 -18 5 -18 6 3 0 12 6 22 12 22 6 0
8 -9 4 -22 -6 -22 -6 -22 9 -4 14 17 16 18 16 3 0 -21 26 -22 34 -1 9 23 7 34
-4 34 -5 0 -10 -10 -11 -22 0 -22 -1 -22 -9 -3 -6 15 -18 21 -46 23 -22 1 -34
-1 -28 -5z"/>
<path d="M1437 1578 c-4 -12 -4 -24 -2 -27 3 -2 5 2 5 10 0 11 2 11 10 -1 8
-12 10 -9 10 13 0 32 -15 36 -23 5z"/>
<path d="M1484 1584 c3 -8 2 -12 -4 -9 -6 3 -10 0 -10 -7 0 -16 79 -21 97 -6
9 7 13 7 13 -1 0 -17 27 -13 34 5 9 23 7 34 -4 34 -5 0 -10 -10 -11 -22 l0
-23 -11 23 c-14 27 -24 28 -31 2 -3 -11 -10 -20 -16 -20 -6 0 -11 9 -11 20 0
25 -17 26 -23 3 -4 -17 -5 -17 -6 0 0 9 -6 17 -12 17 -6 0 -8 -7 -5 -16z"/>
<path d="M1627 1578 c-4 -12 -4 -24 -2 -27 3 -2 5 2 5 10 0 11 2 11 10 -1 8
-12 10 -9 10 13 0 32 -15 36 -23 5z"/>
<path d="M1660 1575 c0 -17 5 -25 18 -25 14 0 15 2 2 10 -13 9 -13 10 0 10 12
0 13 2 1 9 -11 7 -11 9 0 14 10 4 9 6 -3 6 -13 1 -18 -7 -18 -24z"/>
<path d="M1704 1585 c-3 -8 -3 -19 1 -25 8 -13 35 -13 35 0 0 5 -7 7 -15 4
-10 -4 -15 0 -15 11 0 11 5 15 15 11 8 -3 15 -1 15 4 0 16 -30 12 -36 -5z"/>
<path d="M1752 1578 c2 -13 11 -24 21 -26 13 -3 17 3 16 25 -1 28 -1 28 -8 3
-5 -17 -9 -21 -15 -12 -4 6 -4 17 -1 22 3 6 1 10 -5 10 -6 0 -10 -10 -8 -22z"/>
<path d="M1800 1575 c0 -19 5 -25 23 -24 21 0 21 1 2 8 -20 8 -20 8 0 13 20 6
20 6 0 8 -20 1 -20 1 0 10 19 8 19 9 -2 9 -18 1 -23 -5 -23 -24z"/>
<path d="M1128 1499 c-14 -21 -13 -27 3 -65 59 -133 68 -283 26 -453 -30 -122
-30 -153 2 -226 28 -63 87 -112 206 -170 74 -37 116 -64 129 -83 l19 -29 37
36 c21 21 63 46 101 60 138 51 218 128 240 230 11 51 11 52 -35 210 -26 91
-29 169 -12 271 9 51 25 113 36 138 19 42 19 45 2 74 -16 28 -20 29 -62 24
-124 -16 -210 -18 -258 -6 -37 8 -60 9 -84 1 -78 -24 -146 -23 -299 5 -30 5
-38 2 -51 -17z m106 -10 c71 -13 164 -11 228 6 44 11 64 12 88 3 32 -11 244
-6 285 7 16 5 24 0 34 -18 10 -20 9 -33 -8 -85 -12 -34 -27 -96 -33 -137 l-12
-75 -308 0 -308 0 0 28 c0 39 -27 149 -51 210 -18 43 -19 55 -9 68 7 8 20 12
29 9 9 -4 38 -11 65 -16z m346 -330 c0 -5 -4 -9 -10 -9 -19 0 -48 -41 -42 -62
4 -16 2 -19 -9 -13 -11 6 -12 5 -1 -6 6 -7 12 -30 12 -50 0 -21 5 -41 11 -45
7 -4 58 -8 115 -9 127 -2 137 5 136 92 0 64 -22 93 -69 93 -13 0 -21 4 -18 10
3 5 24 9 45 8 30 -1 44 -7 56 -26 9 -13 11 -21 4 -17 -13 8 -4 -56 11 -87 5
-9 8 -21 8 -25 -1 -4 3 -21 9 -36 7 -16 12 -39 12 -52 l0 -23 -337 0 c-374 -1
-367 -2 -334 62 16 34 17 35 26 116 11 90 0 85 199 87 102 1 176 -3 176 -8z
m90 -4 c-6 -12 -51 -8 -65 6 -7 7 3 9 30 7 22 -2 38 -7 35 -13z m-28 -39 c11
-12 16 -12 31 2 14 12 25 13 55 6 l37 -9 3 -60 3 -60 -116 -1 -115 -1 0 57 c0
49 3 58 23 68 31 15 64 14 79 -2z m236 -273 c4 -49 -21 -111 -62 -160 -40 -48
-235 -142 -210 -101 4 7 3 8 -5 4 -6 -4 -10 -10 -8 -14 2 -4 -15 -21 -39 -39
l-43 -32 -19 24 c-10 13 -59 43 -108 66 -106 50 -147 77 -138 91 4 6 3 8 -3 5
-29 -18 -93 99 -93 169 l0 34 363 -2 362 -3 3 -42z"/>
<path d="M1420 1410 c12 -16 19 -30 15 -30 -3 0 -1 -9 5 -20 11 -20 4 -70 -10
-70 -4 0 -15 16 -25 36 -9 20 -19 33 -22 31 -2 -3 5 -24 17 -46 18 -36 23 -40
40 -31 10 5 20 20 22 32 5 31 -11 89 -30 111 -25 29 -35 19 -12 -13z"/>
<path d="M1351 1416 c-9 -11 -9 -15 1 -19 7 -3 3 -6 -10 -6 -13 -1 -20 -5 -17
-11 4 -6 11 -8 16 -5 5 4 9 1 9 -4 0 -6 -7 -11 -15 -11 -9 0 -12 -6 -9 -15 4
-8 16 -15 28 -15 19 0 21 6 21 50 0 52 -5 59 -24 36z"/>
<path d="M1626 1399 c-25 -30 -35 -56 -17 -45 10 6 53 76 47 76 -3 0 -16 -14
-30 -31z"/>
<path d="M1672 1417 c-15 -17 -6 -27 25 -27 18 0 24 5 21 17 -4 22 -31 28 -46
10z"/>
<path d="M1751 1390 c13 -16 25 -28 27 -25 7 7 -27 55 -39 55 -5 0 0 -13 12
-30z"/>
<path d="M1297 1398 c-35 -27 -22 -129 18 -144 25 -10 41 12 24 33 -13 17 -12
17 6 2 11 -8 28 -14 37 -12 15 4 16 8 7 25 -11 20 -20 20 -84 1 -19 -5 -19 -5
-2 14 18 20 14 53 -6 53 -5 0 0 9 13 20 25 22 14 28 -13 8z"/>
<path d="M1651 1351 c-7 -5 -11 -17 -9 -27 4 -22 33 -31 41 -12 7 20 -16 48
-32 39z"/>
<path d="M1727 1339 c-3 -13 0 -22 9 -26 20 -7 38 11 31 31 -9 23 -34 20 -40
-5z"/>
<path d="M1600 1333 c0 -6 12 -25 26 -42 18 -22 35 -31 55 -31 32 0 95 28 85
37 -3 3 -11 1 -18 -4 -21 -17 -85 -23 -101 -10 -8 7 -21 23 -31 37 -9 13 -16
19 -16 13z"/>
<path d="M1320 1130 c13 -8 13 -11 1 -19 -21 -13 -5 -29 24 -23 25 4 36 22 14
22 -6 0 -9 7 -5 15 4 11 -2 15 -22 15 -21 0 -24 -2 -12 -10z"/>
<path d="M1262 1118 c-15 -15 -16 -65 -2 -73 7 -4 9 2 4 19 -3 14 -3 34 2 43
6 14 9 11 14 -17 l7 -35 2 32 c1 36 -10 48 -27 31z"/>
<path d="M1393 1095 c0 -22 2 -30 4 -17 2 12 2 30 0 40 -3 9 -5 -1 -4 -23z"/>
<path d="M1411 1049 c-11 -33 -7 -49 12 -49 7 0 6 4 -3 11 -11 8 -8 9 15 5 17
-3 37 -2 45 4 11 7 7 10 -19 10 -30 0 -33 2 -29 25 7 35 -8 31 -21 -6z"/>
<path d="M1450 1059 c0 -11 4 -18 10 -14 5 3 7 12 3 20 -7 21 -13 19 -13 -6z"/>
<path d="M1485 1061 c-3 -5 -2 -12 3 -15 5 -3 9 1 9 9 0 17 -3 19 -12 6z"/>
<path d="M1290 1025 c0 -21 4 -26 16 -21 8 3 24 1 34 -4 27 -14 50 -2 50 26 0
23 -1 24 -23 10 -22 -15 -70 -18 -61 -5 2 4 0 10 -6 14 -6 4 -10 -5 -10 -20z
m80 -15 c0 -5 -4 -10 -10 -10 -5 0 -10 5 -10 10 0 6 5 10 10 10 6 0 10 -4 10
-10z"/>
<path d="M1265 1020 c3 -5 8 -10 11 -10 2 0 4 5 4 10 0 6 -5 10 -11 10 -5 0
-7 -4 -4 -10z"/>
<path d="M1296 978 c3 -4 11 -5 19 -1 21 7 19 12 -4 10 -11 0 -18 -5 -15 -9z"/>
<path d="M1388 983 c7 -3 16 -2 19 1 4 3 -2 6 -13 5 -11 0 -14 -3 -6 -6z"/>
<path d="M1428 983 c6 -2 18 -2 25 0 6 3 1 5 -13 5 -14 0 -19 -2 -12 -5z"/>
<path d="M1653 1055 c0 -22 2 -30 4 -17 2 12 2 30 0 40 -3 9 -5 -1 -4 -23z"/>
<path d="M1277 842 c-6 -7 -10 -37 -8 -65 3 -68 23 -86 91 -77 48 6 80 -2 80
-20 0 -6 -30 -10 -66 -10 -52 0 -70 4 -80 18 -7 9 -14 12 -14 6 0 -22 31 -37
87 -40 31 -2 62 1 69 7 8 7 14 7 19 -1 10 -17 40 6 41 32 1 13 3 45 5 71 3 53
-13 78 -53 83 -13 1 -25 3 -28 5 -21 9 -133 2 -143 -9z m150 -17 c2 -7 15 -10
29 -7 23 4 24 2 24 -52 0 -47 -3 -56 -17 -56 -34 0 -90 25 -85 38 2 8 -7 12
-27 12 -25 0 -30 4 -34 28 -4 25 -4 25 -6 -5 -1 -31 1 -33 32 -33 24 0 28 -3
17 -10 -8 -5 -27 -10 -42 -10 -24 0 -27 4 -33 44 -4 25 -4 49 0 55 9 15 136
11 142 -4z m-47 -105 c11 -7 4 -10 -25 -9 -31 0 -36 2 -20 9 26 11 28 11 45 0z
m98 -39 c3 -8 -1 -12 -9 -9 -7 2 -15 10 -17 17 -3 8 1 12 9 9 7 -2 15 -10 17
-17z"/>
<path d="M1318 823 c6 -2 18 -2 25 0 6 3 1 5 -13 5 -14 0 -19 -2 -12 -5z"/>
<path d="M1398 785 c-3 -24 0 -35 9 -35 8 0 13 13 13 35 0 19 -4 35 -9 35 -5
0 -11 -16 -13 -35z"/>
<path d="M1430 790 c0 -5 9 -10 20 -10 11 0 20 5 20 10 0 6 -9 10 -20 10 -11
0 -20 -4 -20 -10z"/>
<path d="M1422 744 c-7 -8 -8 -14 -3 -14 10 0 25 19 20 25 -2 1 -10 -3 -17
-11z"/>
<path d="M1611 835 c-2 -5 -2 -27 -1 -47 1 -30 -2 -37 -13 -32 -15 6 -57 -28
-57 -45 0 -14 30 -41 45 -41 24 0 65 19 65 30 0 6 -4 9 -9 5 -10 -6 -18 28
-24 100 -2 22 -5 36 -6 30z m-1 -120 c0 -17 -31 -28 -43 -16 -7 7 -6 15 2 25
14 17 41 11 41 -9z"/>
<path d="M1700 831 c-45 -6 -46 -6 -49 -48 -1 -25 2 -43 8 -43 5 0 8 9 6 19
-9 46 27 87 38 44 4 -17 5 -17 6 0 1 23 21 22 21 -2 0 -10 -9 -21 -20 -24 -48
-12 -27 -107 25 -107 54 0 77 75 31 105 -18 12 -23 23 -20 41 2 13 3 23 2 22
-2 0 -23 -4 -48 -7z m65 -111 c0 -31 -33 -40 -52 -14 -16 22 1 46 31 42 15 -2
21 -10 21 -28z"/>
<path d="M1100 1345 c-12 -14 -6 -35 10 -35 5 0 7 7 4 15 -4 8 -1 15 5 15 6 0
11 -8 11 -17 0 -13 3 -14 12 -5 8 8 8 15 -2 27 -16 19 -24 19 -40 0z"/>
<path d="M1885 1321 c-3 -6 3 -15 12 -21 15 -10 14 -11 -9 -7 -34 5 -37 -9 -4
-15 18 -4 27 1 35 19 6 13 11 26 11 28 0 9 -39 5 -45 -4z"/>
<path d="M1104 1289 c-10 -16 9 -30 26 -19 13 9 13 10 0 10 -13 0 -13 1 0 10
13 8 13 10 -2 10 -9 0 -20 -5 -24 -11z"/>
<path d="M1875 1260 c-9 -15 4 -30 25 -30 27 0 34 17 11 29 -24 13 -28 14 -36
1z"/>
<path d="M1121 1251 c-11 -7 -10 -10 5 -14 16 -4 17 -5 2 -6 -10 0 -18 -5 -18
-10 0 -18 46 1 47 20 2 20 -13 24 -36 10z"/>
<path d="M1870 1206 c0 -10 9 -16 21 -16 24 0 21 23 -4 28 -10 2 -17 -3 -17
-12z"/>
<path d="M1123 1203 c-22 -8 -14 -33 10 -32 20 1 20 2 2 7 -20 5 -20 5 -1 12
11 3 15 9 10 12 -5 3 -15 3 -21 1z"/>
<path d="M1860 1170 c0 -6 12 -10 27 -10 29 0 24 12 -7 17 -11 2 -20 -2 -20
-7z"/>
<path d="M1126 1145 c16 -12 17 -14 3 -15 -9 0 -19 -7 -23 -15 -4 -11 1 -15
18 -15 19 0 23 6 24 30 0 24 -3 30 -21 30 -20 0 -20 0 -1 -15z"/>
<path d="M1870 1135 c0 -8 9 -15 20 -15 11 0 20 7 20 15 0 8 -9 15 -20 15 -11
0 -20 -7 -20 -15z"/>
<path d="M1875 1101 c-3 -6 4 -19 17 -30 12 -12 18 -24 15 -28 -4 -3 -7 -1 -7
5 0 7 -4 12 -10 12 -18 0 -10 -22 10 -27 11 -3 20 -10 20 -15 0 -5 -4 -7 -9
-3 -5 3 -12 1 -16 -5 -7 -12 20 -25 34 -16 10 7 -16 86 -32 97 -5 4 -3 9 4 12
10 4 9 6 -3 6 -9 1 -19 -3 -23 -8z"/>
<path d="M1080 1065 c0 -9 31 -34 43 -35 5 0 6 4 3 9 -4 5 0 12 6 14 8 4 7 6
-4 6 -9 1 -23 4 -32 7 -9 3 -16 3 -16 -1z"/>
<path d="M1080 1001 c0 -4 10 -13 23 -19 12 -7 15 -11 7 -11 -35 3 -44 -3 -21
-12 24 -10 45 4 38 25 -4 12 -47 28 -47 17z"/>
<path d="M1890 970 c0 -11 20 -34 20 -24 0 6 10 16 23 22 20 10 20 10 -10 9
-18 -1 -33 -4 -33 -7z"/>
<path d="M1067 944 c-14 -14 -7 -25 13 -22 12 2 21 8 21 13 0 12 -24 18 -34 9z"/>
<path d="M1927 914 c7 -3 9 -13 6 -22 -6 -15 -4 -15 10 -4 9 8 21 10 28 6 7
-4 10 -2 7 7 -2 8 -18 15 -34 16 -16 1 -24 0 -17 -3z"/>
<path d="M1063 895 c-3 -9 -3 -19 1 -22 3 -4 6 -1 6 5 0 7 5 12 11 12 5 0 7
-6 3 -12 -5 -10 -4 -10 6 -1 13 12 6 33 -11 33 -5 0 -12 -7 -16 -15z"/>
<path d="M1060 856 c0 -2 9 -6 20 -9 11 -3 20 -1 20 4 0 5 -9 9 -20 9 -11 0
-20 -2 -20 -4z"/>
<path d="M1934 826 c1 -20 7 -32 19 -34 20 -4 24 24 5 31 -10 4 -10 6 0 6 19
1 14 18 -7 24 -15 4 -18 -1 -17 -27z"/>
<path d="M1060 815 c0 -8 9 -15 20 -15 11 0 20 7 20 15 0 8 -9 15 -20 15 -11
0 -20 -7 -20 -15z"/>
<path d="M1070 777 c0 -19 10 -27 26 -20 21 8 17 33 -6 33 -11 0 -20 -6 -20
-13z"/>
<path d="M1921 766 c-9 -11 -7 -15 8 -19 22 -5 31 0 31 20 0 17 -24 17 -39 -1z"/>
<path d="M1087 744 c-8 -8 3 -34 14 -34 4 0 6 8 3 18 -5 14 -4 14 5 2 11 -16
27 -8 16 9 -7 12 -28 15 -38 5z"/>
<path d="M1893 716 c-13 -13 -23 -29 -23 -34 0 -12 39 -27 47 -18 10 9 -7 37
-18 30 -8 -4 -7 -9 2 -16 11 -8 11 -9 1 -6 -22 6 -19 19 8 37 14 9 21 11 16 4
-4 -7 -3 -13 3 -13 17 0 24 22 10 31 -19 12 -21 12 -46 -15z"/>
<path d="M1114 705 c-10 -8 -14 -15 -8 -15 5 0 19 7 30 15 10 8 14 15 8 15 -5
0 -19 -7 -30 -15z"/>
<path d="M1125 680 c-9 -15 5 -32 21 -26 8 3 11 0 8 -8 -8 -22 16 -30 34 -12
16 15 15 17 -6 23 -14 3 -21 11 -18 19 6 16 -29 20 -39 4z m55 -40 c0 -5 -5
-10 -11 -10 -5 0 -7 5 -4 10 3 6 8 10 11 10 2 0 4 -4 4 -10z"/>
</g>
</svg>
